{
  "accessors": [
    {
      "bufferView": 2,
      "componentType": 5126,
      "count": 10416,
      "max": [
        1.0948489904403687,
        -1.4760719537734985,
        2.981476068496704
      ],
      "min": [
        -1.0728739500045776,
        -2.972628116607666,
        1.939445972442627
      ],
      "type": "VEC3"
    },
    {
      "bufferView": 2,
      "byteOffset": 124992,
      "componentType": 5126,
      "count": 10416,
      "max": [
        0.999991774559021,
        0.9999994039535522,
        0.9999997615814209
      ],
      "min": [
        -0.9999669790267944,
        -0.9999923706054688,
        -0.9999927282333374
      ],
      "type": "VEC3"
    },
    {
      "bufferView": 1,
      "componentType": 5126,
      "count": 10416,
      "max": [
        1.0,
        1.0
      ],
      "min": [
        0.0,
        0.0
      ],
      "type": "VEC2"
    },
    {
      "bufferView": 0,
      "componentType": 5125,
      "count": 58560,
      "type": "SCALAR"
    },
    {
      "bufferView": 2,
      "byteOffset": 249984,
      "componentType": 5126,
      "count": 5010,
      "max": [
        0.690267026424408,
        -0.8461989760398865,
        5.826642990112305
      ],
      "min": [
        -0.7118009924888611,
        -1.7234309911727905,
        4.426366806030273
      ],
      "type": "VEC3"
    },
    {
      "bufferView": 2,
      "byteOffset": 310104,
      "componentType": 5126,
      "count": 5010,
      "max": [
        0.9999971389770508,
        0.9999945163726807,
        1.0
      ],
      "min": [
        -0.9999971389770508,
        -0.9999920129776001,
        -1.0
      ],
      "type": "VEC3"
    },
    {
      "bufferView": 1,
      "byteOffset": 83328,
      "componentType": 5126,
      "count": 5010,
      "max": [
        1.0,
        1.0
      ],
      "min": [
        0.0,
        -3.300000025774352e-05
      ],
      "type": "VEC2"
    },
    {
      "bufferView": 0,
      "byteOffset": 234240,
      "componentType": 5125,
      "count": 23982,
      "type": "SCALAR"
    },
    {
      "bufferView": 2,
      "byteOffset": 370224,
      "componentType": 5126,
      "count": 9708,
      "max": [
        1.4622570276260376,
        1.1299070119857788,
        6.15897798538208
      ],
      "min": [
        -1.4495799541473389,
        -2.2991418838500977,
        0.052028000354766846
      ],
      "type": "VEC3"
    },
    {
      "bufferView": 2,
      "byteOffset": 486720,
      "componentType": 5126,
      "count": 9708,
      "max": [
        0.9999973773956299,
        0.9999971389770508,
        1.0
      ],
      "min": [
        -0.9999973773956299,
        -0.9999971389770508,
        -1.0
      ],
      "type": "VEC3"
    },
    {
      "bufferView": 1,
      "byteOffset": 123408,
      "componentType": 5126,
      "count": 9708,
      "max": [
        0.9920099973678589,
        0.9221330285072327
      ],
      "min": [
        0.0,
        0.0
      ],
      "type": "VEC2"
    },
    {
      "bufferView": 0,
      "byteOffset": 330168,
      "componentType": 5125,
      "count": 15936,
      "type": "SCALAR"
    },
    {
      "bufferView": 2,
      "byteOffset": 603216,
      "componentType": 5126,
      "count": 43172,
      "max": [
        1.6606359481811523,
        1.4497929811477661,
        6.5476460456848145
      ],
      "min": [
        -1.6512830257415771,
        -2.5338869094848633,
        -0.09139200299978256
      ],
      "type": "VEC3"
    },
    {
      "bufferView": 2,
      "byteOffset": 1121280,
      "componentType": 5126,
      "count": 43172,
      "max": [
        0.9999973773956299,
        0.9999945163726807,
        1.0
      ],
      "min": [
        -0.9999973773956299,
        -0.9995962977409363,
        -0.9999986886978149
      ],
      "type": "VEC3"
    },
    {
      "bufferView": 1,
      "byteOffset": 201072,
      "componentType": 5126,
      "count": 43172,
      "max": [
        0.997452974319458,
        0.9880629777908325
      ],
      "min": [
        0.0,
        0.0
      ],
      "type": "VEC2"
    },
    {
      "bufferView": 0,
      "byteOffset": 393912,
      "componentType": 5125,
      "count": 191532,
      "type": "SCALAR"
    }
  ],
  "asset": {
    "extras": {
      "author": "Be-Ru (https://sketchfab.com/beru837)",
      "license": "CC-BY-NC-ND-4.0 (http://creativecommons.org/licenses/by-nc-nd/4.0/)",
      "source": "https://sketchfab.com/3d-models/butter-robot-from-rick-and-morty-17951fc2689e4929a067da4c58923018",
      "title": "Butter Robot from Rick and Morty"
    },
    "generator": "Sketchfab-11.79.0",
    "version": "2.0"
  },
  "bufferViews": [
    {
      "buffer": 0,
      "byteLength": 1160040,
      "name": "floatBufferViews",
      "target": 34963
    },
    {
      "buffer": 0,
      "byteLength": 546448,
      "byteOffset": 1160040,
      "byteStride": 8,
      "name": "floatBufferViews",
      "target": 34962
    },
    {
      "buffer": 0,
      "byteLength": 1639344,
      "byteOffset": 1706488,
      "byteStride": 12,
      "name": "floatBufferViews",
      "target": 34962
    }
  ],
  "buffers": [
    {
      "byteLength": 3345832,
      "uri": "scene.bin"
    }
  ],
  "images": [
    {
      "uri": "textures/Body_baseColor.png"
    },
    {
      "uri": "textures/Body_metallicRoughness.png"
    },
    {
      "uri": "textures/Body_emissive.png"
    },
    {
      "uri": "textures/Butter_baseColor.png"
    },
    {
      "uri": "textures/Butter_metallicRoughness.png"
    },
    {
      "uri": "textures/Lense_case_baseColor.png"
    },
    {
      "uri": "textures/Lense_case_metallicRoughness.png"
    }
  ],
  "materials": [
    {
      "doubleSided": true,
      "emissiveFactor": [
        1.0,
        1.0,
        1.0
      ],
      "emissiveTexture": {
        "index": 2
      },
      "name": "Body",
      "pbrMetallicRoughness": {
        "baseColorTexture": {
          "index": 0
        },
        "metallicFactor": 0.36502892653151275,
        "metallicRoughnessTexture": {
          "index": 1
        }
      }
    },
    {
      "doubleSided": true,
      "name": "Butter",
      "pbrMetallicRoughness": {
        "baseColorTexture": {
          "index": 3
        },
        "metallicFactor": 0.0,
        "metallicRoughnessTexture": {
          "index": 4
        }
      }
    },
    {
      "doubleSided": true,
      "name": "Lense_case",
      "pbrMetallicRoughness": {
        "baseColorTexture": {
          "index": 5
        },
        "metallicRoughnessTexture": {
          "index": 6
        }
      }
    }
  ],
  "meshes": [
    {
      "name": "Object_0",
      "primitives": [
        {
          "attributes": {
            "NORMAL": 1,
            "POSITION": 0,
            "TEXCOORD_0": 2
          },
          "indices": 3,
          "material": 1,
          "mode": 4
        }
      ]
    },
    {
      "name": "Object_1",
      "primitives": [
        {
          "attributes": {
            "NORMAL": 5,
            "POSITION": 4,
            "TEXCOORD_0": 6
          },
          "indices": 7,
          "material": 2,
          "mode": 4
        }
      ]
    },
    {
      "name": "Object_2",
      "primitives": [
        {
          "attributes": {
            "NORMAL": 9,
            "POSITION": 8,
            "TEXCOORD_0": 10
          },
          "indices": 11,
          "material": 0,
          "mode": 4
        }
      ]
    },
    {
      "name": "Object_3",
      "primitives": [
        {
          "attributes": {
            "NORMAL": 13,
            "POSITION": 12,
            "TEXCOORD_0": 14
          },
          "indices": 15,
          "material": 0,
          "mode": 4
        }
      ]
    }
  ],
  "nodes": [
    {
      "children": [
        1
      ],
      "matrix": [
        1.0,
        0.0,
        0.0,
        0.0,
        0.0,
        2.220446049250313e-16,
        -1.0,
        0.0,
        0.0,
        1.0,
        2.220446049250313e-16,
        0.0,
        0.0,
        0.0,
        0.0,
        1.0
      ],
      "name": "Sketchfab_model"
    },
    {
      "children": [
        2,
        3,
        4,
        5
      ],
      "name": "Butter passing Robot.obj.cleaner.materialmerger.gles"
    },
    {
      "mesh": 0,
      "name": "Object_2"
    },
    {
      "mesh": 1,
      "name": "Object_3"
    },
    {
      "mesh": 2,
      "name": "Object_4"
    },
    {
      "mesh": 3,
      "name": "Object_5"
    }
  ],
  "samplers": [
    {
      "magFilter": 9729,
      "minFilter": 9987,
      "wrapS": 10497,
      "wrapT": 10497
    }
  ],
  "scene": 0,
  "scenes": [
    {
      "name": "Sketchfab_Scene",
      "nodes": [
        0
      ]
    }
  ],
  "textures": [
    {
      "sampler": 0,
      "source": 0
    },
    {
      "sampler": 0,
      "source": 1
    },
    {
      "sampler": 0,
      "source": 2
    },
    {
      "sampler": 0,
      "source": 3
    },
    {
      "sampler": 0,
      "source": 4
    },
    {
      "sampler": 0,
      "source": 5
    },
    {
      "sampler": 0,
      "source": 6
    }
  ]
}
